<mxfile host="app.diagrams.net" modified="2023-12-27T11:01:54.662Z" agent="Mozilla/5.0 (Windows NT 10.0; Win64; x64) AppleWebKit/537.36 (KHTML, like Gecko) Chrome/119.0.0.0 Safari/537.36 OPR/105.0.0.0" etag="mQMNY-l4XjU0U7ypz5b4" version="22.1.11" type="google">
  <diagram id="C5RBs43oDa-KdzZeNtuy" name="Page-1">
    <mxGraphModel grid="1" page="1" gridSize="10" guides="1" tooltips="1" connect="1" arrows="1" fold="1" pageScale="1" pageWidth="827" pageHeight="1169" math="0" shadow="0">
      <root>
        <mxCell id="WIyWlLk6GJQsqaUBKTNV-0" />
        <mxCell id="WIyWlLk6GJQsqaUBKTNV-1" parent="WIyWlLk6GJQsqaUBKTNV-0" />
        <mxCell id="F-WVQtWmwmmTG1KwG65c-15" value="" style="rounded=0;whiteSpace=wrap;html=1;" vertex="1" parent="WIyWlLk6GJQsqaUBKTNV-1">
          <mxGeometry x="-160" y="-270" width="870" height="900" as="geometry" />
        </mxCell>
        <mxCell id="F-WVQtWmwmmTG1KwG65c-0" value="&lt;font style=&quot;font-size: 18px;&quot;&gt;begin&lt;/font&gt;" style="ellipse;whiteSpace=wrap;html=1;" vertex="1" parent="WIyWlLk6GJQsqaUBKTNV-1">
          <mxGeometry x="-50" y="-150" width="120" height="60" as="geometry" />
        </mxCell>
        <mxCell id="F-WVQtWmwmmTG1KwG65c-3" style="edgeStyle=orthogonalEdgeStyle;rounded=0;orthogonalLoop=1;jettySize=auto;html=1;exitX=0.5;exitY=1;exitDx=0;exitDy=0;" edge="1" parent="WIyWlLk6GJQsqaUBKTNV-1" source="F-WVQtWmwmmTG1KwG65c-1" target="F-WVQtWmwmmTG1KwG65c-4">
          <mxGeometry relative="1" as="geometry">
            <mxPoint x="10" y="40" as="targetPoint" />
          </mxGeometry>
        </mxCell>
        <mxCell id="F-WVQtWmwmmTG1KwG65c-1" value="&lt;font style=&quot;font-size: 18px;&quot;&gt;a, b, c, d&lt;/font&gt;" style="shape=parallelogram;perimeter=parallelogramPerimeter;whiteSpace=wrap;html=1;fixedSize=1;" vertex="1" parent="WIyWlLk6GJQsqaUBKTNV-1">
          <mxGeometry x="-50" y="-50" width="120" height="60" as="geometry" />
        </mxCell>
        <mxCell id="F-WVQtWmwmmTG1KwG65c-2" value="" style="endArrow=classic;html=1;rounded=0;exitX=0.5;exitY=1;exitDx=0;exitDy=0;entryX=0.5;entryY=0;entryDx=0;entryDy=0;" edge="1" parent="WIyWlLk6GJQsqaUBKTNV-1" source="F-WVQtWmwmmTG1KwG65c-0" target="F-WVQtWmwmmTG1KwG65c-1">
          <mxGeometry width="50" height="50" relative="1" as="geometry">
            <mxPoint y="70" as="sourcePoint" />
            <mxPoint x="50" y="20" as="targetPoint" />
          </mxGeometry>
        </mxCell>
        <mxCell id="F-WVQtWmwmmTG1KwG65c-5" style="edgeStyle=orthogonalEdgeStyle;rounded=0;orthogonalLoop=1;jettySize=auto;html=1;" edge="1" parent="WIyWlLk6GJQsqaUBKTNV-1" source="F-WVQtWmwmmTG1KwG65c-4" target="F-WVQtWmwmmTG1KwG65c-6">
          <mxGeometry relative="1" as="geometry">
            <mxPoint x="10" y="140" as="targetPoint" />
          </mxGeometry>
        </mxCell>
        <mxCell id="F-WVQtWmwmmTG1KwG65c-4" value="&lt;font style=&quot;font-size: 18px;&quot;&gt;S = a + b + c + d&lt;/font&gt;" style="rounded=0;whiteSpace=wrap;html=1;" vertex="1" parent="WIyWlLk6GJQsqaUBKTNV-1">
          <mxGeometry x="-60" y="50" width="140" height="50" as="geometry" />
        </mxCell>
        <mxCell id="F-WVQtWmwmmTG1KwG65c-7" style="edgeStyle=orthogonalEdgeStyle;rounded=0;orthogonalLoop=1;jettySize=auto;html=1;exitX=0.5;exitY=1;exitDx=0;exitDy=0;" edge="1" parent="WIyWlLk6GJQsqaUBKTNV-1" source="F-WVQtWmwmmTG1KwG65c-6" target="F-WVQtWmwmmTG1KwG65c-8">
          <mxGeometry relative="1" as="geometry">
            <mxPoint x="10" y="240" as="targetPoint" />
          </mxGeometry>
        </mxCell>
        <mxCell id="F-WVQtWmwmmTG1KwG65c-6" value="&lt;font style=&quot;font-size: 18px;&quot;&gt;F = S / 4&lt;/font&gt;" style="rounded=0;whiteSpace=wrap;html=1;" vertex="1" parent="WIyWlLk6GJQsqaUBKTNV-1">
          <mxGeometry x="-50" y="140" width="120" height="60" as="geometry" />
        </mxCell>
        <mxCell id="F-WVQtWmwmmTG1KwG65c-9" style="edgeStyle=orthogonalEdgeStyle;rounded=0;orthogonalLoop=1;jettySize=auto;html=1;" edge="1" parent="WIyWlLk6GJQsqaUBKTNV-1" source="F-WVQtWmwmmTG1KwG65c-8" target="F-WVQtWmwmmTG1KwG65c-10">
          <mxGeometry relative="1" as="geometry">
            <mxPoint x="10" y="350" as="targetPoint" />
          </mxGeometry>
        </mxCell>
        <mxCell id="F-WVQtWmwmmTG1KwG65c-8" value="&lt;font style=&quot;font-size: 18px;&quot;&gt;F&lt;/font&gt;" style="shape=parallelogram;perimeter=parallelogramPerimeter;whiteSpace=wrap;html=1;fixedSize=1;" vertex="1" parent="WIyWlLk6GJQsqaUBKTNV-1">
          <mxGeometry x="-50" y="250" width="120" height="60" as="geometry" />
        </mxCell>
        <mxCell id="F-WVQtWmwmmTG1KwG65c-10" value="&lt;font style=&quot;font-size: 18px;&quot;&gt;end&lt;/font&gt;" style="ellipse;whiteSpace=wrap;html=1;" vertex="1" parent="WIyWlLk6GJQsqaUBKTNV-1">
          <mxGeometry x="-40" y="360" width="100" height="50" as="geometry" />
        </mxCell>
        <mxCell id="F-WVQtWmwmmTG1KwG65c-16" value="&lt;font style=&quot;font-size: 18px;&quot;&gt;Среднее арифметическое 4-х чисел&lt;/font&gt;" style="text;html=1;strokeColor=none;fillColor=none;align=center;verticalAlign=middle;whiteSpace=wrap;rounded=0;" vertex="1" parent="WIyWlLk6GJQsqaUBKTNV-1">
          <mxGeometry x="-110" y="-210" width="230" height="10" as="geometry" />
        </mxCell>
        <mxCell id="F-WVQtWmwmmTG1KwG65c-17" value="&lt;font style=&quot;font-size: 18px;&quot;&gt;Нахождение факториала числа N&lt;/font&gt;" style="text;html=1;strokeColor=none;fillColor=none;align=center;verticalAlign=middle;whiteSpace=wrap;rounded=0;" vertex="1" parent="WIyWlLk6GJQsqaUBKTNV-1">
          <mxGeometry x="360" y="-225" width="260" height="40" as="geometry" />
        </mxCell>
        <mxCell id="F-WVQtWmwmmTG1KwG65c-20" value="&lt;font style=&quot;font-size: 18px;&quot;&gt;begin&lt;/font&gt;" style="ellipse;whiteSpace=wrap;html=1;" vertex="1" parent="WIyWlLk6GJQsqaUBKTNV-1">
          <mxGeometry x="444" y="-140" width="120" height="60" as="geometry" />
        </mxCell>
        <mxCell id="F-WVQtWmwmmTG1KwG65c-21" style="edgeStyle=orthogonalEdgeStyle;rounded=0;orthogonalLoop=1;jettySize=auto;html=1;exitX=0.5;exitY=1;exitDx=0;exitDy=0;" edge="1" parent="WIyWlLk6GJQsqaUBKTNV-1" source="F-WVQtWmwmmTG1KwG65c-22" target="F-WVQtWmwmmTG1KwG65c-25">
          <mxGeometry relative="1" as="geometry">
            <mxPoint x="504" y="50" as="targetPoint" />
          </mxGeometry>
        </mxCell>
        <mxCell id="F-WVQtWmwmmTG1KwG65c-22" value="&lt;font style=&quot;font-size: 18px;&quot;&gt;ввод N&lt;/font&gt;" style="shape=parallelogram;perimeter=parallelogramPerimeter;whiteSpace=wrap;html=1;fixedSize=1;" vertex="1" parent="WIyWlLk6GJQsqaUBKTNV-1">
          <mxGeometry x="444" y="-40" width="120" height="60" as="geometry" />
        </mxCell>
        <mxCell id="F-WVQtWmwmmTG1KwG65c-23" value="" style="endArrow=classic;html=1;rounded=0;exitX=0.5;exitY=1;exitDx=0;exitDy=0;entryX=0.5;entryY=0;entryDx=0;entryDy=0;" edge="1" parent="WIyWlLk6GJQsqaUBKTNV-1" source="F-WVQtWmwmmTG1KwG65c-20" target="F-WVQtWmwmmTG1KwG65c-22">
          <mxGeometry width="50" height="50" relative="1" as="geometry">
            <mxPoint x="494" y="80" as="sourcePoint" />
            <mxPoint x="544" y="30" as="targetPoint" />
          </mxGeometry>
        </mxCell>
        <mxCell id="F-WVQtWmwmmTG1KwG65c-24" style="edgeStyle=orthogonalEdgeStyle;rounded=0;orthogonalLoop=1;jettySize=auto;html=1;" edge="1" parent="WIyWlLk6GJQsqaUBKTNV-1" source="F-WVQtWmwmmTG1KwG65c-25" target="F-WVQtWmwmmTG1KwG65c-27">
          <mxGeometry relative="1" as="geometry">
            <mxPoint x="504" y="150" as="targetPoint" />
          </mxGeometry>
        </mxCell>
        <mxCell id="F-WVQtWmwmmTG1KwG65c-25" value="&lt;font style=&quot;font-size: 18px;&quot;&gt;F= 1&lt;/font&gt;" style="rounded=0;whiteSpace=wrap;html=1;" vertex="1" parent="WIyWlLk6GJQsqaUBKTNV-1">
          <mxGeometry x="434" y="60" width="140" height="50" as="geometry" />
        </mxCell>
        <mxCell id="F-WVQtWmwmmTG1KwG65c-27" value="&lt;font style=&quot;font-size: 18px;&quot;&gt;x = 1&lt;/font&gt;" style="rounded=0;whiteSpace=wrap;html=1;" vertex="1" parent="WIyWlLk6GJQsqaUBKTNV-1">
          <mxGeometry x="444" y="150" width="120" height="60" as="geometry" />
        </mxCell>
        <mxCell id="F-WVQtWmwmmTG1KwG65c-28" style="edgeStyle=orthogonalEdgeStyle;rounded=0;orthogonalLoop=1;jettySize=auto;html=1;" edge="1" parent="WIyWlLk6GJQsqaUBKTNV-1" source="F-WVQtWmwmmTG1KwG65c-29" target="F-WVQtWmwmmTG1KwG65c-30">
          <mxGeometry relative="1" as="geometry">
            <mxPoint x="360" y="480" as="targetPoint" />
          </mxGeometry>
        </mxCell>
        <mxCell id="F-WVQtWmwmmTG1KwG65c-29" value="&lt;font style=&quot;font-size: 18px;&quot;&gt;F&lt;/font&gt;" style="shape=parallelogram;perimeter=parallelogramPerimeter;whiteSpace=wrap;html=1;fixedSize=1;" vertex="1" parent="WIyWlLk6GJQsqaUBKTNV-1">
          <mxGeometry x="300" y="380" width="120" height="60" as="geometry" />
        </mxCell>
        <mxCell id="F-WVQtWmwmmTG1KwG65c-30" value="&lt;font style=&quot;font-size: 18px;&quot;&gt;end&lt;/font&gt;" style="ellipse;whiteSpace=wrap;html=1;" vertex="1" parent="WIyWlLk6GJQsqaUBKTNV-1">
          <mxGeometry x="310" y="490" width="100" height="50" as="geometry" />
        </mxCell>
        <mxCell id="AdEeCL2vunf8xXkyVYBJ-0" value="&lt;font style=&quot;font-size: 18px;&quot;&gt;x &amp;lt;= N ?&lt;/font&gt;" style="rhombus;whiteSpace=wrap;html=1;" vertex="1" parent="WIyWlLk6GJQsqaUBKTNV-1">
          <mxGeometry x="441" y="270" width="126" height="80" as="geometry" />
        </mxCell>
        <mxCell id="AdEeCL2vunf8xXkyVYBJ-4" value="" style="endArrow=classic;html=1;rounded=0;exitX=0.5;exitY=1;exitDx=0;exitDy=0;" edge="1" parent="WIyWlLk6GJQsqaUBKTNV-1" source="F-WVQtWmwmmTG1KwG65c-27">
          <mxGeometry width="50" height="50" relative="1" as="geometry">
            <mxPoint x="430" y="380" as="sourcePoint" />
            <mxPoint x="504" y="270" as="targetPoint" />
          </mxGeometry>
        </mxCell>
        <mxCell id="AdEeCL2vunf8xXkyVYBJ-5" value="" style="endArrow=classic;html=1;rounded=0;exitX=0;exitY=0.5;exitDx=0;exitDy=0;entryX=0.5;entryY=0;entryDx=0;entryDy=0;" edge="1" parent="WIyWlLk6GJQsqaUBKTNV-1" source="AdEeCL2vunf8xXkyVYBJ-0" target="F-WVQtWmwmmTG1KwG65c-29">
          <mxGeometry width="50" height="50" relative="1" as="geometry">
            <mxPoint x="420" y="370" as="sourcePoint" />
            <mxPoint x="390" y="380" as="targetPoint" />
            <Array as="points">
              <mxPoint x="360" y="310" />
            </Array>
          </mxGeometry>
        </mxCell>
        <mxCell id="AdEeCL2vunf8xXkyVYBJ-6" value="&lt;font style=&quot;font-size: 14px;&quot;&gt;No&lt;/font&gt;" style="text;html=1;strokeColor=none;fillColor=none;align=center;verticalAlign=middle;whiteSpace=wrap;rounded=0;" vertex="1" parent="WIyWlLk6GJQsqaUBKTNV-1">
          <mxGeometry x="370" y="280" width="60" height="30" as="geometry" />
        </mxCell>
        <mxCell id="AdEeCL2vunf8xXkyVYBJ-9" value="&lt;font style=&quot;font-size: 18px;&quot;&gt;F = F * x&lt;/font&gt;" style="rounded=0;whiteSpace=wrap;html=1;" vertex="1" parent="WIyWlLk6GJQsqaUBKTNV-1">
          <mxGeometry x="444" y="390" width="120" height="60" as="geometry" />
        </mxCell>
        <mxCell id="AdEeCL2vunf8xXkyVYBJ-12" value="" style="endArrow=classic;html=1;rounded=0;exitX=0.5;exitY=1;exitDx=0;exitDy=0;entryX=0.5;entryY=0;entryDx=0;entryDy=0;" edge="1" parent="WIyWlLk6GJQsqaUBKTNV-1" source="AdEeCL2vunf8xXkyVYBJ-0" target="AdEeCL2vunf8xXkyVYBJ-9">
          <mxGeometry width="50" height="50" relative="1" as="geometry">
            <mxPoint x="400" y="400" as="sourcePoint" />
            <mxPoint x="450" y="350" as="targetPoint" />
          </mxGeometry>
        </mxCell>
        <mxCell id="AdEeCL2vunf8xXkyVYBJ-14" value="&lt;font style=&quot;font-size: 14px;&quot;&gt;Yes&lt;/font&gt;" style="text;html=1;strokeColor=none;fillColor=none;align=center;verticalAlign=middle;whiteSpace=wrap;rounded=0;" vertex="1" parent="WIyWlLk6GJQsqaUBKTNV-1">
          <mxGeometry x="500" y="350" width="60" height="30" as="geometry" />
        </mxCell>
        <mxCell id="AdEeCL2vunf8xXkyVYBJ-15" style="edgeStyle=orthogonalEdgeStyle;rounded=0;orthogonalLoop=1;jettySize=auto;html=1;" edge="1" parent="WIyWlLk6GJQsqaUBKTNV-1" target="AdEeCL2vunf8xXkyVYBJ-16">
          <mxGeometry relative="1" as="geometry">
            <mxPoint x="504" y="490" as="targetPoint" />
            <mxPoint x="504" y="450" as="sourcePoint" />
          </mxGeometry>
        </mxCell>
        <mxCell id="AdEeCL2vunf8xXkyVYBJ-16" value="&lt;font style=&quot;font-size: 18px;&quot;&gt;x = x + 1&lt;/font&gt;" style="rounded=0;whiteSpace=wrap;html=1;" vertex="1" parent="WIyWlLk6GJQsqaUBKTNV-1">
          <mxGeometry x="444" y="500" width="120" height="60" as="geometry" />
        </mxCell>
        <mxCell id="AdEeCL2vunf8xXkyVYBJ-19" value="" style="endArrow=classic;html=1;rounded=0;exitX=1;exitY=0.5;exitDx=0;exitDy=0;entryX=1;entryY=0.5;entryDx=0;entryDy=0;" edge="1" parent="WIyWlLk6GJQsqaUBKTNV-1" source="AdEeCL2vunf8xXkyVYBJ-16" target="AdEeCL2vunf8xXkyVYBJ-0">
          <mxGeometry width="50" height="50" relative="1" as="geometry">
            <mxPoint x="400" y="390" as="sourcePoint" />
            <mxPoint x="450" y="340" as="targetPoint" />
            <Array as="points">
              <mxPoint x="640" y="530" />
              <mxPoint x="640" y="430" />
              <mxPoint x="640" y="310" />
            </Array>
          </mxGeometry>
        </mxCell>
      </root>
    </mxGraphModel>
  </diagram>
</mxfile>
